<svg width="1024" height="1024" viewBox="0 0 1024 1024" fill="none" xmlns="http://www.w3.org/2000/svg">
  <title>Locke — macOS app icon</title>
  <defs>
    <linearGradient id="ic-bg" x1="512" y1="100" x2="512" y2="924" gradientUnits="userSpaceOnUse">
      <stop offset="0" stop-color="#171a23"></stop>
      <stop offset="1" stop-color="#0a0b10"></stop>
    </linearGradient>
    <radialGradient id="ic-glow" cx="512" cy="640" r="380" gradientUnits="userSpaceOnUse">
      <stop offset="0" stop-color="#7b6cff" stop-opacity="0.22"></stop>
      <stop offset="1" stop-color="#7b6cff" stop-opacity="0"></stop>
    </radialGradient>
    <mask id="ic-knock">
      <rect width="64" height="64" fill="#fff"></rect>
      <circle cx="19" cy="18" r="5.4" fill="#000"></circle>
      <circle cx="42" cy="18" r="5.4" fill="#000"></circle>
    </mask>
  </defs>
  <rect x="100" y="100" width="824" height="824" rx="185" fill="url(#ic-bg)"></rect>
  <rect x="100" y="100" width="824" height="824" rx="185" fill="url(#ic-glow)"></rect>
  <rect x="100.75" y="100.75" width="822.5" height="822.5" rx="184.25" stroke="#ffffff" stroke-opacity="0.08" stroke-width="1.5"></rect>
  <svg x="226" y="220" width="600" height="600" viewBox="0 0 64 64" fill="none">
    <g mask="url(#ic-knock)">
      <path d="M19 18v17a8 8 0 0 0 8 8h11" stroke="#8b7dff" stroke-width="5" stroke-linecap="round"></path>
      <path d="M19 27c0-5 4-9 9-9h6" stroke="#3fd0c0" stroke-width="5" stroke-linecap="round"></path>
    </g>
    <circle cx="19" cy="18" r="7.5" stroke="#8b7dff" stroke-width="5"></circle>
    <circle cx="42" cy="18" r="7.5" stroke="#3fd0c0" stroke-width="5"></circle>
    <circle cx="42" cy="43" r="7.5" fill="#8b7dff"></circle>
  </svg>
</svg>
